<?xml version="1.0" standalone="no"?>
<!DOCTYPE svg PUBLIC "-//W3C//DTD SVG 20010904//EN"
 "http://www.w3.org/TR/2001/REC-SVG-20010904/DTD/svg10.dtd">
<svg version="1.0" xmlns="http://www.w3.org/2000/svg"
 width="600.000000pt" height="600.000000pt" viewBox="0 0 600.000000 600.000000"
 preserveAspectRatio="xMidYMid meet">
<metadata>
Created by potrace 1.14, written by Peter Selinger 2001-2017
</metadata>
<g transform="translate(0.000000,600.000000) scale(0.100000,-0.100000)"
fill="#000000" stroke="none">
<path d="M2640 5979 c0 -16 -5 -20 -20 -16 -11 3 -20 0 -20 -5 0 -6 -6 -5 -15
2 -12 10 -15 10 -15 -4 0 -9 -5 -16 -11 -16 -5 0 -7 6 -3 13 6 8 3 8 -9 -1 -9
-8 -39 -15 -67 -15 -27 -1 -50 -6 -50 -10 0 -5 -14 -7 -30 -5 -17 3 -33 1 -36
-4 -3 -4 -12 -8 -21 -8 -9 0 -25 -8 -36 -17 -11 -10 -17 -12 -13 -5 4 6 2 12
-3 12 -6 0 -11 -4 -11 -10 0 -5 -5 -10 -11 -10 -5 0 -7 6 -4 13 4 6 1 5 -7 -3
-7 -9 -24 -15 -38 -14 -14 1 -30 -3 -37 -8 -7 -5 -17 -7 -23 -3 -5 3 -10 1
-10 -6 0 -6 -8 -9 -20 -6 -11 3 -20 1 -20 -3 0 -5 -15 -12 -32 -15 -18 -4 -38
-12 -45 -17 -7 -5 -17 -7 -22 -4 -5 4 -12 2 -16 -4 -4 -6 -11 -8 -16 -5 -5 4
-9 1 -9 -5 0 -6 -11 -8 -25 -6 -14 3 -23 1 -20 -5 11 -17 -6 -31 -21 -18 -11
9 -14 9 -14 -1 0 -7 -8 -10 -20 -7 -11 3 -17 1 -14 -4 3 -6 -5 -8 -19 -5 -21
4 -24 1 -19 -17 5 -20 4 -20 -11 -8 -15 12 -17 11 -17 -4 0 -11 -5 -15 -15
-11 -8 3 -15 1 -15 -4 0 -6 -5 -10 -11 -10 -5 0 -7 6 -3 13 4 6 -2 4 -13 -5
-11 -10 -27 -18 -36 -18 -9 0 -17 -8 -17 -17 0 -15 -2 -16 -10 -3 -6 10 -10
11 -10 3 0 -7 -7 -13 -15 -13 -8 0 -15 -4 -15 -10 0 -5 -5 -10 -11 -10 -5 0
-7 6 -3 13 4 7 3 9 -2 4 -5 -5 -9 -14 -9 -20 -1 -7 -6 -11 -13 -10 -7 2 -12
-1 -12 -7 0 -5 -7 -6 -17 -3 -11 4 -14 3 -9 -5 5 -8 -3 -14 -24 -19 -18 -3
-34 -12 -37 -19 -3 -8 -9 -11 -14 -8 -5 3 -9 0 -9 -6 0 -7 -7 -10 -15 -6 -9 3
-15 0 -15 -8 0 -8 -7 -17 -16 -20 -8 -3 -13 -10 -10 -14 3 -5 -1 -9 -9 -9 -8
0 -12 4 -9 9 3 4 -2 5 -11 2 -9 -4 -14 -13 -11 -21 5 -11 2 -11 -17 -2 -19 11
-21 10 -9 -3 11 -14 9 -16 -17 -14 -24 2 -28 -1 -19 -11 8 -10 7 -13 -5 -13
-9 0 -23 -8 -33 -17 -10 -10 -22 -19 -28 -19 -6 -1 -15 -2 -20 -3 -5 0 -3 -7
3 -14 8 -11 6 -13 -12 -13 -14 1 -21 -4 -19 -13 3 -12 0 -12 -12 -2 -13 11
-15 10 -11 -7 3 -15 -2 -19 -21 -16 -25 2 -33 -11 -11 -19 7 -3 4 -6 -6 -6
-10 -1 -15 -5 -12 -11 4 -6 -8 -10 -27 -11 -18 0 -27 -3 -20 -6 6 -2 12 -10
12 -15 0 -6 -3 -8 -7 -5 -3 4 -12 -1 -20 -11 -14 -16 -14 -16 -8 3 6 19 5 19
-14 -2 -23 -25 -28 -38 -8 -27 9 6 8 3 -1 -8 -8 -9 -19 -15 -26 -12 -7 3 -19
-3 -27 -13 -12 -16 -12 -17 2 -6 12 10 16 10 16 0 0 -7 -9 -14 -20 -14 -27 -2
-53 -34 -49 -58 2 -16 1 -17 -7 -5 -9 13 -11 13 -11 -2 0 -9 -5 -20 -11 -24
-8 -4 -9 1 -5 17 l6 24 -11 -22 c-7 -13 -16 -23 -21 -23 -4 0 -8 -5 -8 -11 0
-5 6 -7 13 -3 8 5 8 3 -2 -9 -7 -9 -17 -14 -23 -11 -12 7 -39 -16 -32 -27 3
-5 0 -9 -5 -9 -6 0 -10 -3 -10 -7 3 -20 -2 -26 -11 -13 -8 13 -10 12 -11 -5
-1 -11 -1 -23 0 -27 0 -4 -6 -5 -13 -2 -14 5 -40 -28 -31 -38 3 -3 -2 -5 -10
-5 -9 0 -12 5 -7 12 4 6 -1 2 -11 -9 -10 -10 -15 -26 -13 -33 4 -9 1 -11 -6
-7 -8 5 -9 2 -4 -11 6 -16 4 -16 -11 -4 -11 9 -14 10 -9 2 4 -8 2 -13 -6 -13
-11 0 -10 -2 0 -9 10 -6 8 -10 -8 -14 -15 -4 -21 -11 -17 -21 4 -10 1 -16 -8
-16 -8 0 -16 -4 -16 -10 -1 -5 -2 -15 -3 -22 0 -6 -8 -13 -16 -15 -13 -4 -13
-3 0 7 13 10 13 11 0 7 -8 -2 -14 -13 -14 -25 1 -12 -1 -20 -5 -18 -3 2 -15
-6 -26 -17 -11 -11 -15 -17 -9 -14 6 3 11 0 11 -7 0 -8 -7 -12 -15 -8 -10 3
-13 1 -8 -6 3 -6 -2 -15 -11 -21 -14 -8 -15 -11 -3 -11 8 -1 5 -5 -9 -11 -18
-7 -22 -15 -19 -33 4 -18 1 -23 -11 -21 -25 4 -33 -5 -20 -21 10 -12 10 -15
-2 -12 -8 2 -15 -7 -17 -20 -2 -12 -8 -19 -14 -16 -6 4 -8 -1 -3 -15 5 -17 2
-24 -12 -27 -20 -6 -62 -56 -42 -52 6 2 14 -3 16 -10 3 -8 -1 -10 -11 -6 -9 3
-17 1 -17 -5 -3 -21 -4 -26 -18 -58 -7 -18 -18 -33 -23 -33 -5 0 -6 5 -2 12 4
7 3 8 -5 4 -9 -6 -9 -11 0 -22 9 -11 9 -14 -1 -14 -9 0 -9 -4 1 -17 12 -15 12
-16 -3 -11 -13 5 -16 1 -13 -18 2 -18 -2 -24 -12 -20 -11 4 -11 1 -3 -14 8
-15 8 -18 -3 -14 -8 3 -17 -2 -21 -11 -3 -9 -2 -13 4 -10 19 11 10 -8 -12 -26
-14 -13 -16 -19 -7 -19 12 0 12 -2 0 -9 -8 -5 -10 -14 -6 -21 5 -8 4 -11 -2
-7 -6 4 -13 -2 -16 -13 -3 -11 -1 -18 3 -15 5 3 12 1 15 -5 4 -6 3 -10 -2 -9
-23 4 -35 -2 -29 -16 3 -10 -1 -15 -12 -15 -14 0 -14 -2 -3 -9 11 -7 9 -11 -8
-21 -17 -9 -20 -15 -11 -24 7 -10 5 -26 -9 -60 -14 -32 -17 -46 -8 -46 8 0 8
-3 -2 -9 -8 -5 -10 -14 -6 -22 6 -9 4 -11 -8 -6 -14 5 -15 2 -7 -18 7 -18 6
-25 -3 -25 -6 0 -13 -13 -14 -28 -1 -16 -8 -47 -16 -70 -9 -26 -11 -44 -5 -50
6 -6 6 -12 -1 -16 -6 -4 -11 -16 -11 -27 0 -10 -6 -19 -12 -19 -8 0 -9 -3 -3
-8 12 -9 13 -92 1 -85 -5 4 -7 -4 -4 -15 4 -15 2 -22 -9 -22 -9 0 -11 -5 -6
-12 11 -19 12 -37 3 -43 -4 -3 -6 -14 -3 -25 3 -13 0 -20 -8 -20 -11 0 -11 -2
1 -10 8 -5 10 -10 4 -10 -10 0 -14 -12 -15 -52 0 -10 -4 -18 -10 -18 -10 0
-13 -588 -3 -615 5 -13 8 -14 15 -3 7 10 9 9 9 -4 0 -10 5 -18 12 -18 6 0 8
-3 5 -7 -4 -3 -1 -13 6 -21 9 -13 9 -14 0 -8 -7 4 -13 2 -13 -3 0 -6 5 -11 11
-11 5 0 8 -4 5 -9 -4 -5 0 -12 6 -14 9 -4 9 -6 2 -6 -8 -1 -9 -12 -4 -35 4
-19 6 -37 3 -40 -2 -2 3 -18 12 -35 9 -19 11 -31 5 -31 -7 0 -8 -5 -3 -13 4
-6 9 -23 11 -36 2 -13 9 -40 17 -58 8 -19 10 -31 5 -28 -5 3 -11 1 -15 -5 -3
-6 4 -10 17 -10 17 0 19 -3 9 -9 -9 -6 -10 -11 -2 -15 6 -4 9 -11 6 -16 -3 -5
-1 -11 5 -15 5 -3 10 -12 10 -18 0 -7 -4 -6 -10 3 -6 9 -10 10 -10 3 0 -6 7
-18 15 -26 8 -8 11 -17 8 -21 -4 -3 -2 -6 4 -6 6 0 9 -9 6 -20 -3 -12 0 -20 6
-20 7 0 9 -4 6 -10 -3 -6 0 -10 7 -10 9 0 9 -3 -2 -10 -11 -7 -11 -10 -2 -10
7 0 10 -4 7 -10 -3 -5 -1 -10 5 -10 6 0 8 -4 5 -10 -3 -5 1 -10 10 -10 9 0 13
-5 10 -10 -4 -6 -11 -8 -16 -4 -5 3 0 -13 12 -35 12 -23 25 -44 30 -47 5 -3 7
-10 4 -15 -4 -5 -3 -15 2 -21 4 -7 8 -19 9 -26 2 -8 10 -19 20 -26 12 -9 14
-15 5 -20 -8 -5 -6 -12 7 -24 11 -11 12 -14 2 -8 -8 5 -1 -4 15 -20 20 -18 24
-25 11 -21 -17 7 -17 6 -5 -10 8 -10 20 -22 26 -26 17 -10 17 -30 1 -21 -9 5
-9 3 1 -9 7 -9 17 -15 21 -12 4 2 5 -8 3 -23 -4 -21 -2 -24 6 -12 9 12 11 10
11 -13 0 -20 4 -26 13 -21 6 4 9 4 5 -1 -4 -4 -2 -15 5 -23 10 -13 9 -14 -3
-7 -13 8 -13 6 -2 -7 8 -9 19 -16 25 -14 7 1 9 1 4 -1 -12 -8 -8 -19 17 -46
13 -14 27 -23 32 -19 4 4 4 1 0 -6 -4 -7 -12 -9 -18 -6 -6 4 -3 -4 8 -18 10
-15 24 -25 29 -25 6 1 10 -10 9 -25 0 -20 4 -25 19 -22 16 3 17 1 6 -14 -7 -9
-9 -14 -5 -10 11 9 35 -21 36 -44 0 -9 9 -20 20 -23 11 -4 18 -11 15 -16 -4
-5 1 -9 10 -9 9 0 13 -4 10 -10 -3 -5 -1 -10 5 -10 6 0 8 -5 5 -10 -3 -6 -1
-10 5 -10 6 0 9 -4 5 -9 -3 -5 0 -13 6 -17 8 -4 9 -3 5 4 -4 7 -2 12 3 12 6 0
11 -12 11 -26 0 -14 4 -23 9 -20 5 3 15 -2 22 -11 10 -12 10 -14 2 -9 -16 9
-17 -6 -2 -21 6 -6 18 -9 27 -6 10 4 13 2 8 -5 -4 -7 -3 -12 1 -12 5 0 13 -10
18 -22 6 -13 16 -22 22 -21 6 1 14 -4 17 -13 4 -10 1 -13 -7 -9 -6 4 0 -5 15
-19 16 -14 28 -30 28 -36 0 -6 3 -9 8 -7 10 6 52 -39 44 -48 -4 -4 -2 -6 3 -5
22 5 32 -1 43 -25 6 -14 26 -31 44 -39 31 -14 32 -15 5 -11 -17 2 -25 0 -21
-6 3 -6 8 -8 12 -5 3 3 11 -2 19 -12 8 -9 12 -11 8 -4 -3 6 -1 12 4 12 6 0 11
-9 11 -19 0 -11 5 -23 12 -27 7 -4 8 -3 4 4 -4 7 -3 12 3 12 5 0 13 -9 16 -21
5 -16 9 -18 21 -8 12 10 15 10 12 -1 -2 -8 4 -14 12 -15 8 0 16 -10 18 -22 2
-12 10 -24 19 -27 12 -5 13 -3 7 7 -5 7 1 2 12 -11 15 -16 26 -22 35 -16 12 6
12 5 0 -9 -13 -17 -3 -24 15 -9 5 4 8 6 7 3 -7 -12 23 -45 53 -57 19 -8 34
-19 34 -26 0 -6 3 -9 6 -5 9 9 44 -25 37 -37 -3 -6 -3 -8 2 -4 10 10 65 -19
65 -35 0 -9 3 -8 9 1 7 11 9 10 15 -3 3 -9 11 -13 18 -9 8 5 9 2 5 -9 -4 -11
-2 -14 9 -10 9 3 14 -1 14 -12 0 -9 5 -13 11 -10 5 4 20 -1 31 -12 12 -10 18
-12 14 -6 -5 9 -2 11 8 7 9 -3 14 -10 11 -14 -3 -4 9 -10 26 -14 17 -3 28 -10
25 -14 -3 -5 1 -9 9 -10 8 -1 22 -3 30 -4 8 -1 13 -4 11 -7 -2 -3 0 -15 5 -26
7 -18 8 -18 9 5 l1 25 15 -27 c8 -16 17 -28 20 -28 3 0 2 6 -2 13 -5 8 -2 7 9
-2 10 -8 20 -11 24 -7 3 3 13 -3 20 -14 8 -11 18 -18 23 -15 5 3 27 -3 48 -14
22 -11 42 -18 44 -15 3 2 11 -2 18 -11 7 -8 18 -15 24 -15 6 0 4 5 -4 10 -8 5
-10 10 -4 10 16 0 35 -25 26 -36 -4 -4 0 -3 9 4 14 10 18 10 23 -4 5 -13 9
-14 20 -5 11 9 16 9 22 0 5 -8 3 -9 -6 -4 -8 5 -11 4 -6 -3 3 -6 15 -9 26 -7
11 2 20 0 20 -5 0 -4 7 -11 16 -14 8 -3 12 -2 9 4 -3 6 -2 10 4 10 5 0 14 -6
18 -12 14 -23 51 -39 59 -27 4 8 10 6 16 -5 7 -12 14 -14 28 -6 13 7 21 7 25
-1 4 -6 13 -8 21 -5 7 3 18 -3 23 -12 8 -14 10 -14 11 -2 0 11 2 12 8 3 4 -7
24 -14 44 -16 20 -2 43 -8 50 -14 7 -5 20 -14 28 -18 13 -8 13 -7 1 8 -12 15
-12 17 3 11 9 -3 16 -10 16 -15 0 -5 15 -8 33 -8 17 0 43 -2 57 -6 14 -3 43
-8 65 -9 27 -2 44 -10 53 -25 14 -21 17 -21 448 -21 450 0 440 -1 434 39 -2
13 0 13 16 0 11 -8 15 -9 10 -1 -6 11 5 17 27 13 4 0 7 4 7 9 0 7 6 7 20 0 14
-8 20 -8 20 0 0 6 5 8 11 4 6 -3 15 0 20 7 7 11 9 11 9 1 0 -10 4 -10 16 2 18
19 38 21 29 4 -4 -7 -1 -6 7 3 7 9 23 15 36 14 12 -1 22 3 22 8 0 5 11 7 25 5
14 -3 25 -2 25 2 0 4 16 11 35 17 25 8 35 8 39 -1 2 -6 5 -2 5 9 1 14 4 16 12
8 14 -14 41 -5 32 11 -3 6 4 2 18 -9 14 -12 19 -14 11 -4 -10 14 -10 18 4 23
9 3 19 4 24 1 4 -3 11 3 14 12 6 14 9 15 15 4 7 -11 11 -9 20 8 10 17 15 19
31 11 14 -7 20 -7 20 0 0 5 9 10 21 10 13 0 18 4 13 12 -5 8 -2 9 9 5 10 -3
17 -2 17 4 0 6 8 9 18 7 9 -2 23 5 30 17 8 12 11 14 8 4 -3 -13 0 -15 15 -12
11 3 18 11 15 19 -3 8 2 11 15 9 11 -2 22 2 25 10 3 7 12 11 19 9 7 -3 16 -1
19 5 4 6 14 7 24 4 9 -3 14 -3 10 2 -11 12 11 35 28 28 7 -3 17 2 20 11 5 12
10 14 19 6 14 -12 31 3 21 18 -3 5 0 9 7 10 38 4 54 9 67 22 8 8 21 15 28 16
28 2 31 5 26 17 -3 8 2 14 10 14 8 0 12 -5 9 -11 -3 -6 7 3 23 20 16 17 42 34
57 38 16 4 25 11 21 17 -3 6 0 10 7 8 29 -3 39 2 39 20 0 12 7 18 18 17 10 0
16 5 14 13 -3 12 -1 12 13 1 14 -11 16 -11 13 1 -2 9 5 14 19 13 18 0 20 3 12
19 -10 17 -8 17 11 7 13 -7 20 -8 16 -2 -3 5 1 15 9 22 8 7 12 17 8 24 -4 6 1
5 10 -3 15 -12 17 -12 10 4 -5 14 -3 17 10 12 8 -3 21 1 27 8 7 8 17 12 22 9
6 -4 5 2 -1 14 -10 19 -9 20 14 16 19 -3 23 -1 19 11 -4 9 -3 15 2 14 5 -1 18
-1 29 0 17 1 18 3 5 11 -13 8 -12 10 3 10 16 0 22 12 18 34 -1 5 4 4 12 -3 12
-9 16 -7 20 9 3 11 9 20 14 19 19 -3 27 2 15 10 -10 6 -9 11 4 22 16 12 17 12
9 -1 -7 -12 -6 -13 7 -3 8 7 19 9 24 5 4 -4 3 0 -4 9 -10 13 -9 19 5 30 11 9
14 10 9 2 -4 -7 -3 -13 2 -13 5 0 12 9 15 21 3 12 10 18 16 15 6 -4 8 2 6 15
-3 17 -1 19 10 9 8 -7 15 -7 19 -1 3 5 0 12 -6 14 -8 4 -7 6 4 6 23 1 50 31
44 48 -4 10 -1 11 12 4 15 -8 18 -6 18 12 -1 14 4 21 13 19 12 -3 12 -1 0 14
-9 12 -9 15 -1 10 7 -4 12 -2 12 4 0 6 5 8 10 5 8 -5 14 14 12 36 -1 4 6 6 16
5 11 -1 18 8 20 24 2 14 8 30 13 35 7 7 8 4 4 -7 -4 -10 -4 -18 -1 -18 4 0 11
12 16 26 6 14 15 22 21 18 8 -4 9 0 4 15 -5 16 -2 21 12 21 14 0 15 2 5 9 -11
6 -9 10 7 14 11 3 25 17 31 32 6 17 14 24 22 19 9 -6 9 -3 0 9 -12 14 -11 16
10 12 22 -4 22 -4 4 10 -11 9 -14 15 -7 15 7 0 19 6 27 14 11 11 11 16 1 20
-6 4 -2 4 10 2 20 -3 21 -1 12 15 -8 16 -6 19 13 20 13 0 18 3 11 5 -7 3 -9
12 -6 20 3 7 9 11 15 8 5 -3 8 2 6 12 -2 11 2 18 9 17 7 -2 10 6 8 17 -2 11 1
19 7 17 6 -1 14 9 18 23 4 14 13 24 20 22 11 -2 11 0 1 11 -9 12 -8 16 5 21 9
4 14 13 10 21 -3 10 1 15 12 15 13 0 14 2 4 9 -11 7 -11 9 2 14 8 3 19 21 24
39 5 19 15 32 22 30 11 -3 11 0 0 12 -9 12 -9 16 -1 16 7 0 11 6 9 13 -2 6 1
13 6 14 14 2 28 32 21 43 -3 6 -1 10 6 10 6 0 9 8 6 20 -3 14 0 20 10 20 13 0
13 2 2 17 -9 10 -9 14 -2 10 7 -5 17 1 23 14 8 15 9 19 1 15 -19 -12 -12 2 12
25 12 12 16 19 10 15 -7 -4 -13 -2 -13 3 0 6 5 11 11 11 5 0 8 4 5 9 -8 13 4
42 15 36 4 -3 6 4 4 16 -2 11 0 29 5 40 6 10 14 27 19 38 6 12 6 22 -2 30 -9
9 -8 11 4 6 13 -5 17 -1 16 17 0 13 3 37 8 53 4 17 8 40 9 52 0 11 5 19 10 15
5 -3 7 5 4 16 -4 12 -2 22 4 22 6 0 8 7 5 15 -4 8 -2 17 3 20 6 3 6 15 0 30
-7 18 -6 23 3 19 8 -2 13 8 14 28 2 18 7 34 13 36 5 2 10 8 10 13 0 6 -4 8 -8
5 -5 -3 -9 1 -9 9 0 11 5 12 20 3 12 -6 17 -6 13 0 -3 5 1 12 9 16 13 5 15 68
15 479 0 518 5 476 -53 478 -14 0 -15 4 -7 20 8 13 7 19 0 19 -7 0 -7 6 1 21
8 16 8 24 -2 33 -9 8 -10 8 -4 -4 5 -9 4 -12 -1 -7 -4 4 -9 20 -9 35 0 15 -4
33 -8 39 -8 13 -19 67 -18 96 0 9 -4 17 -10 17 -5 0 -9 5 -9 11 0 5 6 7 13 3
9 -6 9 -5 0 8 -7 8 -9 19 -5 23 4 5 2 5 -4 2 -7 -4 -15 0 -18 9 -4 10 -2 13 6
8 6 -4 4 3 -5 16 -12 18 -14 27 -5 37 7 8 7 13 0 13 -16 0 -32 56 -19 69 7 7
6 12 -6 17 -9 3 -14 10 -11 15 3 5 0 9 -7 9 -7 0 -10 3 -6 6 3 4 -1 13 -9 22
-9 8 -14 25 -11 38 2 13 1 21 -3 19 -13 -8 -19 22 -8 33 7 7 4 14 -11 24 -11
7 -21 17 -21 22 0 5 -8 18 -17 29 -10 11 -13 17 -6 14 6 -4 15 -2 19 4 4 7 3
9 -2 6 -6 -3 -16 -2 -24 4 -11 6 -11 9 -2 9 10 0 10 5 2 20 -6 11 -7 20 -3 20
4 1 -3 10 -16 20 -14 12 -18 20 -10 20 9 0 10 3 4 8 -5 4 -19 17 -29 30 -20
23 -20 23 0 16 11 -3 7 3 -11 16 -20 15 -23 20 -10 16 19 -6 18 -5 -2 13 -12
10 -19 21 -16 25 4 3 1 6 -7 6 -10 0 -10 3 0 16 11 12 11 15 -1 12 -8 -2 -13
2 -12 9 2 7 -4 10 -12 7 -11 -5 -13 -2 -8 12 5 13 3 15 -7 9 -7 -5 -11 -4 -8
1 8 13 -10 56 -21 49 -5 -3 -13 0 -17 6 -4 8 -3 9 4 5 7 -4 12 -2 12 3 0 6 -4
11 -10 11 -5 0 -10 5 -10 11 0 6 -7 17 -15 26 -8 8 -12 20 -8 26 4 6 0 8 -10
4 -12 -4 -14 -2 -10 10 5 12 2 15 -9 11 -11 -5 -14 0 -10 19 3 17 1 24 -6 19
-6 -3 -13 3 -17 14 -3 11 -12 20 -18 20 -7 0 -6 4 3 10 11 7 12 10 2 10 -22 0
-42 27 -36 47 4 14 4 15 -4 4 -12 -17 -33 -6 -25 14 3 10 -1 15 -12 15 -9 0
-13 5 -10 10 3 6 1 10 -4 10 -6 0 -11 9 -11 21 0 11 -4 17 -10 14 -5 -3 -10 1
-10 9 0 9 -5 16 -11 16 -5 0 -7 5 -3 12 5 8 2 9 -10 5 -13 -5 -16 -2 -14 11 1
9 -2 19 -7 20 -6 2 -15 8 -22 14 -7 5 -18 6 -25 2 -8 -5 -8 -1 2 11 14 17 13
18 -4 12 -15 -6 -17 -5 -8 6 12 14 6 27 -12 27 -6 0 -5 -4 2 -9 11 -6 10 -10
-4 -15 -10 -4 -15 -4 -11 0 4 4 -1 13 -11 21 -9 8 -11 12 -5 8 9 -4 11 -1 7 9
-3 9 -10 13 -15 10 -5 -3 -9 -1 -9 3 0 5 -7 18 -15 29 -15 19 -15 19 -10 -1 3
-11 -2 -5 -10 13 -10 22 -22 32 -38 32 -18 0 -19 2 -7 10 13 8 12 10 -2 10
-10 0 -18 5 -18 11 0 5 -4 8 -9 5 -5 -3 -8 2 -7 12 1 11 -5 16 -18 14 -11 -2
-15 1 -11 7 3 6 1 11 -4 11 -6 0 -11 8 -11 18 0 14 -2 15 -10 2 -8 -12 -10
-11 -10 6 0 12 -7 25 -16 28 -15 6 -15 4 -3 -11 12 -17 12 -17 -7 0 -16 15
-17 19 -4 28 13 9 13 10 0 6 -8 -2 -26 5 -40 17 -20 17 -22 18 -10 2 14 -18
14 -18 -7 -6 -12 8 -19 20 -15 28 3 10 1 13 -6 8 -7 -4 -12 -2 -12 4 0 6 -4 8
-10 5 -5 -3 -10 1 -10 10 0 11 -5 15 -14 12 -10 -4 -14 0 -11 12 2 10 -3 18
-10 18 -8 0 -12 -4 -9 -9 3 -4 0 -8 -5 -8 -6 0 -11 10 -11 21 0 19 -2 20 -17
8 -9 -8 -14 -9 -10 -3 4 7 -1 18 -10 25 -12 10 -14 10 -9 2 4 -7 2 -13 -3 -13
-6 0 -11 7 -11 15 0 8 -5 15 -11 15 -5 0 -8 4 -5 9 3 5 -1 11 -9 14 -10 4 -12
1 -9 -11 3 -9 -2 -5 -11 11 -8 15 -18 27 -21 27 -3 0 -3 -4 0 -8 3 -5 -1 -9
-8 -9 -8 0 -12 7 -8 15 3 10 1 13 -6 8 -7 -4 -15 -1 -18 8 -3 8 -13 17 -21 20
-12 5 -13 3 -7 -7 5 -7 -1 -1 -13 13 -13 14 -31 25 -40 25 -10 0 -18 7 -18 15
0 10 -8 14 -23 12 -12 -2 -25 3 -28 11 -3 9 -13 13 -25 10 -11 -3 -19 -2 -17
3 2 5 0 9 -3 9 -3 0 -13 7 -22 15 -42 38 -47 41 -47 28 -1 -8 -6 -6 -15 6 -8
10 -12 23 -8 29 3 6 1 7 -6 3 -6 -4 -9 -12 -5 -18 3 -5 -8 -2 -25 7 -17 9 -36
13 -41 10 -6 -3 -10 2 -10 12 0 15 -2 16 -10 3 -9 -13 -10 -13 -11 0 -1 8 -1
19 0 23 1 5 -3 6 -9 2 -6 -3 -7 -12 -3 -18 3 -7 -2 -5 -13 3 -35 27 -64 41
-64 30 0 -6 -6 -5 -14 2 -8 7 -11 18 -8 23 3 6 -1 4 -10 -3 -13 -10 -18 -10
-24 -1 -5 8 -3 9 6 4 9 -5 11 -4 6 4 -4 6 -12 9 -17 5 -5 -3 -17 0 -26 8 -14
11 -16 11 -9 -2 4 -8 1 -7 -7 3 -11 14 -16 15 -20 5 -4 -11 -6 -11 -6 0 -1 7
-5 10 -11 7 -5 -3 -10 -1 -10 5 0 6 -4 8 -10 5 -5 -3 -10 0 -10 7 0 9 -3 9
-10 -2 -7 -11 -10 -11 -10 -2 0 7 -4 11 -9 7 -5 -3 -12 -1 -15 4 -4 5 -25 12
-49 16 -23 4 -57 13 -74 21 -24 9 -33 10 -33 2 0 -7 -7 -3 -16 8 -8 10 -13 13
-9 7 3 -7 1 -13 -4 -13 -6 0 -11 5 -11 11 0 5 -4 7 -10 4 -5 -3 -10 -2 -10 3
0 6 -7 13 -16 16 -8 3 -12 2 -9 -4 3 -6 1 -10 -4 -10 -6 0 -11 5 -11 11 0 5
-4 7 -10 4 -5 -3 -10 -2 -10 4 0 6 -6 8 -12 6 -7 -3 -42 1 -78 9 -37 7 -72 10
-81 5 -9 -5 -21 -3 -27 3 -7 7 -12 8 -12 2 0 -12 -200 1 -209 14 -6 9 -38 8
-48 -2 -3 -3 -14 -1 -24 5 -14 7 -19 6 -19 -3 0 -8 -3 -9 -8 -3 -8 11 -22 16
-67 21 -16 2 -35 6 -41 8 -6 2 -17 0 -25 -4 -8 -5 -19 -4 -26 2 -7 6 -13 6
-13 1 0 -5 -13 -8 -30 -5 -16 2 -30 8 -30 13 0 5 -54 9 -120 9 -116 0 -120 -1
-120 -21z m1905 -429 c3 -5 1 -10 -4 -10 -6 0 -11 5 -11 10 0 6 2 10 4 10 3 0
8 -4 11 -10z m-1524 -293 c-6 -8 -7 -18 -3 -22 4 -5 1 -5 -6 -1 -10 6 -10 11
-1 22 6 8 14 14 16 14 3 0 0 -6 -6 -13z m-36 -6 c-9 -8 -36 -10 -30 -2 2 4 11
8 20 8 8 0 13 -3 10 -6z m65 -22 c0 -5 -4 -9 -8 -9 -5 0 -9 7 -9 15 0 8 4 12
9 9 4 -3 8 -9 8 -15z m-80 -7 c0 -4 -9 -8 -20 -9 -11 -1 -18 2 -15 8 7 11 35
12 35 1z m135 -46 c25 -24 32 -37 24 -42 -8 -4 -9 -3 -5 4 4 7 1 12 -8 12 -8
0 -17 8 -21 19 -3 10 -15 23 -28 29 -12 6 -17 11 -10 11 6 1 28 -14 48 -33z
m-195 4 c0 -11 -60 -74 -60 -63 0 4 -5 0 -11 -10 -5 -9 -7 -23 -3 -30 4 -6 4
-9 -1 -5 -4 4 -15 3 -22 -4 -8 -6 -5 4 7 24 11 20 28 39 36 42 8 3 12 10 9 16
-3 5 0 7 8 4 9 -3 16 3 20 15 5 21 17 29 17 11z m-1940 -14 c0 -2 -7 -9 -15
-16 -13 -11 -14 -10 -9 4 5 14 24 23 24 12z m2200 -56 c0 -5 -5 -10 -11 -10
-5 0 -7 5 -4 10 3 6 8 10 11 10 2 0 4 -4 4 -10z m1927 -12 c-3 -8 -6 -5 -6 6
-1 11 2 17 5 13 3 -3 4 -12 1 -19z m-1911 -3 c-3 -8 2 -19 12 -24 9 -6 12 -11
7 -11 -17 0 -34 21 -28 36 3 8 7 14 10 14 3 0 3 -7 -1 -15z m-2349 -60 c0 -8
-4 -12 -9 -9 -5 3 -6 10 -3 15 9 13 12 11 12 -6z m2383 5 c0 -5 -5 -10 -11
-10 -5 0 -7 5 -4 10 3 6 8 10 11 10 2 0 4 -4 4 -10z m-430 -13 c0 -2 -9 -10
-19 -19 -18 -16 -20 -15 -18 1 0 9 9 18 19 18 10 1 18 1 18 0z m457 -19 c2
-18 0 -20 -7 -8 -12 18 -13 30 -2 30 4 0 9 -10 9 -22z m-510 -27 c0 -11 -6
-17 -14 -14 -7 3 -13 -2 -13 -10 0 -9 -4 -19 -10 -22 -18 -11 -10 13 13 39 27
31 26 31 24 7z m573 -43 c0 -5 8 -8 18 -9 11 0 12 -2 4 -6 -7 -3 -24 7 -37 21
-13 14 -21 26 -18 26 3 0 2 6 -3 13 -5 7 1 1 13 -13 13 -14 23 -28 23 -32z
m1955 12 c-3 -5 -12 -10 -18 -10 -7 0 -6 4 3 10 19 12 23 12 15 0z m-2589 -25
c-1 -8 -5 -17 -8 -21 -5 -4 -4 16 1 34 3 9 9 -1 7 -13z m705 -42 c13 -15 17
-22 9 -16 -8 6 -18 12 -22 12 -5 1 -8 4 -7 8 0 4 -8 10 -18 14 -14 6 -15 8 -2
8 8 1 26 -11 40 -26z m-751 -3 c-14 -11 -21 -20 -17 -20 5 0 2 -7 -7 -15 -8
-8 -21 -15 -28 -14 -10 0 -10 2 0 6 6 2 9 10 5 16 -3 7 -3 9 1 6 4 -4 18 4 31
17 13 13 28 24 32 24 4 0 -3 -9 -17 -20z m814 -70 c14 -22 22 -40 18 -40 -5 0
-14 11 -20 25 -6 14 -16 25 -22 25 -6 0 -9 4 -5 9 3 5 -3 12 -12 14 -15 4 -15
5 -2 6 9 0 28 -17 43 -39z m-874 3 c-1 -13 -30 -48 -30 -36 0 7 5 15 10 18 6
4 8 11 5 16 -4 5 -1 9 4 9 6 0 11 -3 11 -7z m905 -313 c2 -12 1 -20 -2 -16 -4
4 -8 16 -10 28 -2 12 -1 19 2 16 3 -3 8 -16 10 -28z m-931 1 c3 -5 -1 -11 -9
-14 -9 -4 -12 -1 -8 9 6 16 10 17 17 5z m-23 -54 c-10 -9 -11 -8 -5 6 3 10 9
15 12 12 3 -3 0 -11 -7 -18z m976 -239 c2 -12 1 -19 -2 -16 -3 3 -8 16 -10 28
-2 12 -1 20 2 16 4 -4 8 -16 10 -28z m-967 6 c0 -8 -19 -13 -24 -6 -3 5 1 9 9
9 8 0 15 -2 15 -3z m-20 -54 c0 -5 -2 -10 -4 -10 -3 0 -8 5 -11 10 -3 6 -1 10
4 10 6 0 11 -4 11 -10z m1005 -189 c3 -5 2 -12 -3 -15 -5 -3 -9 1 -9 9 0 17 3
19 12 6z m-1015 -11 c0 -5 -7 -7 -15 -4 -8 4 -15 8 -15 10 0 2 7 4 15 4 8 0
15 -4 15 -10z m1055 -580 c2 -12 1 -20 -2 -16 -4 4 -8 16 -10 28 -2 12 -1 19
2 16 3 -3 8 -16 10 -28z m-1095 -6 c0 -8 -19 -13 -24 -6 -3 5 1 9 9 9 8 0 15
-2 15 -3z m1464 -130 c3 -8 2 -12 -4 -9 -6 3 -10 10 -10 16 0 14 7 11 14 -7z
m850 -802 c3 -5 -1 -9 -9 -9 -8 0 -12 4 -9 9 3 4 7 8 9 8 2 0 6 -4 9 -8z
m-3544 -16 c0 -3 -4 -8 -10 -11 -5 -3 -10 -1 -10 4 0 6 5 11 10 11 6 0 10 -2
10 -4z m3555 -425 c3 -5 2 -12 -3 -15 -5 -3 -9 1 -9 9 0 17 3 19 12 6z m-3675
-741 c0 -5 -2 -10 -4 -10 -3 0 -8 5 -11 10 -3 6 -1 10 4 10 6 0 11 -4 11 -10z
m3884 2 c3 -5 -1 -9 -9 -9 -8 0 -12 4 -9 9 3 4 7 8 9 8 2 0 6 -4 9 -8z m-4247
-214 c-3 -8 -6 -5 -6 6 -1 11 2 17 5 13 3 -3 4 -12 1 -19z m4473 -52 c0 -2 -8
-10 -17 -17 -16 -13 -17 -12 -4 4 13 16 21 21 21 13z m-530 -462 c0 -8 -19
-13 -24 -6 -3 5 1 9 9 9 8 0 15 -2 15 -3z m-2940 -244 c0 -5 -2 -10 -4 -10 -3
0 -8 5 -11 10 -3 6 -1 10 4 10 6 0 11 -4 11 -10z"/>
<path d="M5800 4041 c0 -6 4 -13 10 -16 6 -3 7 1 4 9 -7 18 -14 21 -14 7z"/>
</g>
</svg>
